<svg width="126" height="28" viewBox="0 0 126 28" fill="none" xmlns="http://www.w3.org/2000/svg">
<path d="M9.1181 1.54004C6.48523 1.54004 3.75034 3.5928 3.01779 6.11882L0.137103 16.0522C-0.412851 17.9486 0.740863 19.4822 2.71747 19.4822H6.58841L10.7001 13.5941L8.3207 6.75664L14.2663 10.8872L21.1216 8.53748L22.1688 4.98611C22.7298 3.08342 21.5763 1.54004 19.5931 1.54004H9.1181Z" fill="white"/>
<path d="M9.59045 10.4039C9.19496 10.8795 8.89276 11.4195 8.72682 11.9916L5.51978 23.0504C4.97001 24.9462 6.1244 26.4793 8.10167 26.4793H18.6813C21.2795 26.4793 23.9844 24.4802 24.7565 21.9895L27.8434 12.032C28.439 10.1106 27.2855 8.53712 25.2813 8.53712L21.1219 8.53711L16.9735 14.453L19.353 21.2904L13.4074 17.1599L6.58877 19.4818L10.7005 13.5937L9.59045 10.4039Z" fill="white" fill-opacity="0.6"/>
<path d="M21.1219 8.53711L13.3317 8.53711C12.7086 8.53711 12.078 8.68928 11.4888 8.95693L14.2667 10.8868L21.1219 8.53711Z" fill="white" fill-opacity="0.6"/>
<path d="M44.0208 5.45996H38.6942L33.5996 21.795H36.1925L37.524 17.4679H45.1836L46.5205 21.795H49.0914L44.0208 5.45996ZM38.1856 15.3132L41.0096 6.1317H41.6819L44.5186 15.3137H38.1856V15.3132ZM62.8875 19.3031C62.3078 19.728 61.594 19.9407 60.7462 19.9407C59.9729 19.9407 59.3142 19.7744 58.7667 19.4422C58.2177 19.1109 57.8086 18.6426 57.5385 18.0411C57.2684 17.4382 57.1338 16.7586 57.1338 16.0025C57.1338 15.2463 57.2684 14.5697 57.5385 13.9741C57.8086 13.3799 58.2177 12.9169 58.7667 12.5847C59.3142 12.252 59.9734 12.0857 60.7462 12.0857C61.5945 12.0857 62.3083 12.2984 62.8875 12.7233C63.4482 13.1355 63.8022 13.7746 63.9494 14.6419H66.3644C66.2615 13.6443 65.9368 12.7955 65.3887 12.0974C64.8251 11.3803 64.1342 10.851 63.3166 10.5115C62.4975 10.1714 61.6404 10.0012 60.7457 10.0012C59.5263 10.0012 58.4639 10.2558 57.5609 10.7661C56.6579 11.2764 55.9641 11.9862 55.4771 12.8974C54.9914 13.8097 54.7472 14.8434 54.7472 16.003C54.7472 17.1625 54.9914 18.1963 55.4771 19.107C55.9641 20.0178 56.655 20.732 57.5492 21.2496C58.4449 21.7672 59.5102 22.0257 60.7457 22.0257C61.6404 22.0257 62.497 21.8594 63.3166 21.5272C64.1347 21.1959 64.8251 20.671 65.3887 19.9524C65.9363 19.2539 66.2615 18.3997 66.3644 17.386H63.9494C63.8022 18.2519 63.4482 18.8909 62.8875 19.3031ZM79.4218 14.9824V21.794H76.9903V15.3068C76.9903 14.1487 76.7738 13.3223 76.3419 12.8282C75.9094 12.3335 75.199 12.0867 74.2112 12.0867C73.4087 12.0867 72.7178 12.2798 72.1391 12.6657C71.5598 13.0521 71.1122 13.6155 70.7958 14.357C70.4794 15.0985 70.3209 15.9869 70.3209 17.0216V21.7945H67.9129V5.45996H70.3209V13.3092C70.6096 12.3335 71.1269 11.5549 71.8728 10.9744C72.7061 10.3256 73.7714 10.0012 75.0683 10.0012C75.9635 10.0012 76.7392 10.1948 77.3955 10.5807C78.0512 10.9666 78.5534 11.5344 78.9006 12.2833C79.2482 13.0326 79.4218 13.9326 79.4218 14.9829V14.9824ZM112.418 15.0556V21.774H110.009V15.3337C110.009 14.5931 109.941 13.9785 109.801 13.4916C109.662 13.0052 109.434 12.6462 109.117 12.414C108.801 12.1832 108.38 12.0667 107.856 12.0667C107.099 12.0667 106.466 12.2759 105.957 12.693C105.447 13.1096 105.077 13.6892 104.845 14.4302C104.614 15.1727 104.498 16.0761 104.498 17.1406V21.7745H102.09V15.241C102.075 14.5161 102.001 13.9204 101.87 13.457C101.738 12.9935 101.514 12.6462 101.198 12.414C100.881 12.1832 100.461 12.0667 99.9365 12.0667C99.1798 12.0667 98.5469 12.2759 98.0374 12.693C97.5279 13.1096 97.1574 13.6892 96.9253 14.4302C96.6942 15.1727 96.5782 16.0761 96.5782 17.1406V21.7745H94.1696V10.2134H96.5782V13.0443C96.8658 12.1901 97.3246 11.4813 97.956 10.9207C98.6586 10.2949 99.5659 9.98215 100.677 9.98215C101.542 9.98215 102.245 10.1944 102.785 10.6188C103.325 11.0442 103.718 11.6427 103.965 12.414C104.028 12.6101 104.083 12.815 104.129 13.0301C104.437 12.2018 104.916 11.5105 105.563 10.9554C106.32 10.3061 107.284 9.98215 108.459 9.98215C109.369 9.98215 110.113 10.187 110.693 10.5954C111.272 11.0051 111.703 11.5891 111.989 12.3457C112.275 13.1023 112.418 14.0063 112.418 15.0561V15.0556ZM114.2 24.3463L118.368 24.3234L119.271 21.775H116.608L113.019 10.2134H115.474L118.785 21.1262H119.434L122.745 10.2134H125.107L120.615 24.8795C120.444 25.3581 120.217 25.7254 119.931 25.9801C119.646 26.2347 119.264 26.3625 118.785 26.3625H114.2V24.3468V24.3463ZM52.9432 21.794H50.558V5.45996H52.9432V21.7945V21.794ZM91.7133 12.6306C91.2423 11.7735 90.5748 11.1212 89.7089 10.6729C88.8449 10.2246 87.8259 10.0007 86.6528 10.0007C85.4798 10.0007 84.5417 10.2363 83.7006 10.7076C82.8596 11.1788 82.2033 11.851 81.7323 12.7233C81.2614 13.5965 81.0259 14.6507 81.0259 15.8854C81.0259 17.1201 81.2497 18.1104 81.6977 19.0373C82.1458 19.9642 82.8016 20.6944 83.666 21.2262C84.53 21.7599 85.5807 22.0257 86.8147 22.0257C88.4822 22.0257 89.7801 21.6238 90.705 20.8213C91.565 20.0768 92.1311 19.1397 92.4041 18.0089H90.0214C89.8074 18.6377 89.4563 19.1339 88.9692 19.4997C88.4129 19.9173 87.6874 20.1256 86.7913 20.1256C85.6801 20.1256 84.8303 19.7671 84.2453 19.0485C83.7323 18.4211 83.4374 17.6274 83.3623 16.6659H92.4183V15.6771C92.4183 14.5029 92.1828 13.4882 91.7133 12.6306ZM83.7699 13.4994C84.0561 12.9745 84.449 12.5725 84.9507 12.295C85.452 12.0159 86.0273 11.8769 86.6762 11.8769C87.7269 11.8769 88.5592 12.1774 89.1774 12.7804C89.725 13.3155 90.0302 14.0341 90.0906 14.9346H83.3613C83.4076 14.3926 83.5432 13.9141 83.7704 13.4989L83.7699 13.4994Z" fill="white"/>
</svg>
